<svg id="Layer_1" data-name="Layer 1" xmlns="http://www.w3.org/2000/svg" viewBox="0 0 479.26 65.23"><defs><style>.cls-1{fill:#1a1818;}.cls-2{fill:#fff;}</style></defs><title>final</title><path class="cls-1" d="M89,54.52c-2.82-3.37-10.46.18-14.46-1.55-2.91-1.27-3.91-5.28-2-7.55,1.36-1.64,3.37-1.64,5.37-1.73,2.46-.09,4.82.64,7.09-.55,2.91-1.46,3.73-5.09.64-6.91-3.73-2.27-9.37-.55-13,1.09-7.46,3.18-10.19,13.19-5.18,19.37a12.16,12.16,0,0,0,3.55,2.91c4.28,2.46,10.1,3.27,14.64,1.27C88.22,59.8,91.23,57.25,89,54.52Z" transform="translate(-9.12 -12.94)"/><path class="cls-1" d="M368.45,35.1c-2.71-3.46-10.46-.17-14.4-2-2.87-1.37-3.73-5.4-1.75-7.61,1.42-1.59,3.42-1.52,5.42-1.55,2.46,0,4.8.8,7.11-.31,3-1.36,3.9-5,.87-6.89-3.65-2.4-9.35-.86-13,.66-7.56,2.93-10.62,12.84-5.83,19.19a12.16,12.16,0,0,0,3.45,3c4.19,2.6,10,3.61,14.59,1.76C367.55,40.35,370.63,37.9,368.45,35.1Z" transform="translate(-9.12 -12.94)"/><path class="cls-1" d="M368,53.08c-2.71-3.46-10.46-.17-14.4-2-2.87-1.37-3.73-5.4-1.75-7.61,1.42-1.59,3.42-1.52,5.42-1.55,2.46,0,4.8.8,7.11-.31,3-1.36,3.9-5,.87-6.89-3.65-2.4-9.35-.86-13,.66-7.56,2.93-10.62,12.84-5.83,19.19a12.16,12.16,0,0,0,3.45,3c4.19,2.6,10,3.61,14.59,1.76C367.11,58.33,370.19,55.89,368,53.08Z" transform="translate(-9.12 -12.94)"/><path class="cls-1" d="M293.06,54.52c-2.82-3.37-10.46.18-14.46-1.55-2.91-1.27-3.91-5.28-2-7.55C278,43.79,280,43.79,282,43.7c2.46-.09,4.82.64,7.09-.55,2.91-1.46,3.73-5.09.64-6.91-3.73-2.27-9.37-.55-13,1.09-7.46,3.18-10.19,13.19-5.18,19.37a12.16,12.16,0,0,0,3.55,2.91c4.28,2.46,10.1,3.27,14.64,1.27C292.33,59.8,295.34,57.25,293.06,54.52Z" transform="translate(-9.12 -12.94)"/><path class="cls-1" d="M146.24,38.21a9.73,9.73,0,0,0-5.88-4.53c-3.64-.94-7.64.6-10.63,2.94a16,16,0,0,0-5.34,8c-2.19,8.3,4.89,16.49,13.51,17.76,1.79.28,3.65-.13,4-2a3.54,3.54,0,0,0-.74-2.68,5.36,5.36,0,0,0-3.23-1.39c-2.62-.63-7.12-2.1-6.87-5.23a.52.52,0,0,1,.2-.52c.33-.35.85-.14,1.16,0,2.95.86,5.61,1.77,8.75.86a9,9,0,0,0,6-5.74A8.52,8.52,0,0,0,147,40,5.09,5.09,0,0,0,146.24,38.21Zm-11.07,2a7.14,7.14,0,0,1,2.43-.5,4,4,0,0,1,2.67.91c2,1.79.87,5.75-1.94,6.32a5.42,5.42,0,0,1-4.53-1.08,3.15,3.15,0,0,1-.74-3.84A4.86,4.86,0,0,1,135.17,40.25Z" transform="translate(-9.12 -12.94)"/><path class="cls-1" d="M479.58,34.09a9.73,9.73,0,0,0-7.41-.53c-3.55,1.23-6,4.72-7.24,8.32a16,16,0,0,0-.06,9.58c2.75,8.13,13.18,11.06,21.07,7.35,1.65-.75,3-2.12,2.23-3.9a3.54,3.54,0,0,0-2.1-1.83,5.36,5.36,0,0,0-3.46.62c-2.53.92-7.09,2.18-8.62-.57a.52.52,0,0,1-.12-.54c.08-.47.63-.59,1-.64,2.93-.91,5.66-1.62,7.77-4.12a9,9,0,0,0,1.83-8.1,8.52,8.52,0,0,0-3.22-4.57A5.09,5.09,0,0,0,479.58,34.09Zm-8.1,7.82a7.14,7.14,0,0,1,1.75-1.76,4,4,0,0,1,2.72-.71c2.69.36,3.9,4.32,1.87,6.34a5.42,5.42,0,0,1-4.38,1.6,3.15,3.15,0,0,1-2.74-2.79A4.86,4.86,0,0,1,471.48,41.91Z" transform="translate(-9.12 -12.94)"/><path class="cls-1" d="M223.86,37.51a9.73,9.73,0,0,0-4.76-5.69c-3.35-1.7-7.59-1.07-11,.57A16,16,0,0,0,201.14,39c-3.93,7.63,1.2,17.16,9.35,20.26,1.68.66,3.59.67,4.36-1.11a3.54,3.54,0,0,0-.14-2.78,5.36,5.36,0,0,0-2.85-2.06c-2.42-1.18-6.5-3.59-5.58-6.6a.52.52,0,0,1,.31-.46c.4-.27.86,0,1.13.25,2.69,1.48,5.1,2.94,8.36,2.73a9,9,0,0,0,7.1-4.31,8.52,8.52,0,0,0,1.05-5.48A5.09,5.09,0,0,0,223.86,37.51Zm-11.25-.4a7.14,7.14,0,0,1,2.48,0,4,4,0,0,1,2.41,1.46c1.6,2.19-.4,5.81-3.26,5.75a5.42,5.42,0,0,1-4.19-2,3.15,3.15,0,0,1,.11-3.91A4.86,4.86,0,0,1,212.61,37.11Z" transform="translate(-9.12 -12.94)"/><path class="cls-1" d="M223.07,57A9.73,9.73,0,0,0,229,61.54c3.64.94,7.64-.6,10.63-2.94a16,16,0,0,0,5.34-8c2.19-8.3-4.88-16.49-13.51-17.76-1.79-.28-3.65.13-4,2a3.54,3.54,0,0,0,.74,2.68A5.36,5.36,0,0,0,231.37,39c2.62.63,7.12,2.1,6.87,5.23a.52.52,0,0,1-.2.52c-.33.35-.85.14-1.16,0-2.95-.86-5.61-1.77-8.75-.86a9,9,0,0,0-6,5.74,8.52,8.52,0,0,0,.16,5.58A5.09,5.09,0,0,0,223.07,57Zm11.07-2a7.14,7.14,0,0,1-2.43.5,4,4,0,0,1-2.67-.91c-2-1.79-.86-5.75,1.94-6.32a5.42,5.42,0,0,1,4.53,1.08,3.15,3.15,0,0,1,.74,3.84A4.86,4.86,0,0,1,234.14,55Z" transform="translate(-9.12 -12.94)"/><path class="cls-1" d="M61.72,37a9.28,9.28,0,0,0-6-3.82c-3.53-.59-7.21,1.2-9.86,3.67a15.23,15.23,0,0,0-4.42,8c-1.4,8.06,6,15.27,14.3,15.76,1.72.12,3.46-.42,3.65-2.25a3.37,3.37,0,0,0-.92-2.49,5.11,5.11,0,0,0-3.18-1.06c-2.54-.38-6.94-1.41-7-4.41a.5.5,0,0,1,.15-.51c.28-.35.79-.2,1.1-.1,2.87.58,5.48,1.22,8.38.1A8.6,8.6,0,0,0,63.22,44a8.13,8.13,0,0,0-.61-5.29A4.86,4.86,0,0,0,61.72,37ZM51.37,39.87a6.81,6.81,0,0,1,2.27-.68,3.8,3.8,0,0,1,2.61.64c2.08,1.53,1.3,5.4-1.32,6.16a5.17,5.17,0,0,1-4.39-.65,3,3,0,0,1-1-3.59A4.64,4.64,0,0,1,51.37,39.87Z" transform="translate(-9.12 -12.94)"/><path class="cls-1" d="M104.47,73.43l.36.53c1.29,1.65,3.31,4.46,5.87,4.2a2.94,2.94,0,0,0,2-1.24c.78-1.36,0-2.31-1-3.13a14.08,14.08,0,0,1-3-3.35c-1.59-2.48-2.95-6-2.39-9a9.94,9.94,0,0,0,3.36.6,12.21,12.21,0,0,0,3.71-.32A12.67,12.67,0,0,0,120,57.81c5.78-6.28,2.48-17.67-7-18.29-16.69-1-16,17.13-12,27.55A27.6,27.6,0,0,0,104.47,73.43Zm8.6-18.7c-1.84,1.31-4.14,2.11-5.74,1a2.6,2.6,0,0,1-.72-1.06,6.91,6.91,0,0,1,.6-6.15c1.85-2.66,6.78-3.24,8.36-.09a4.69,4.69,0,0,1-.06,3.76A8.71,8.71,0,0,1,113.06,54.72Z" transform="translate(-9.12 -12.94)"/><path class="cls-1" d="M413,74.54a12.66,12.66,0,0,0,3-1.05c3-1.71,3.42-3.57,4.42-5.3l.29-.57a27.6,27.6,0,0,0,2.58-6.77c2.58-10.87.76-28.9-15.64-25.66-9.35,1.91-11.06,13.64-4.48,19.08a12.67,12.67,0,0,0,7.06,3A12.21,12.21,0,0,0,414,57a11.58,11.58,0,0,0,2.73-.78.47.47,0,0,1,.67.29c.68,2.77-.14,6.19-1.31,8.69a10.66,10.66,0,0,1-2.44,3.67,9.11,9.11,0,0,1-7.3.43c-4.74-1.53-5-3.37-5.42-4.32a1.58,1.58,0,0,0-2.84-.21c-.89,1.42-.3,3.7.11,4.74.58,1.47,3.79,4.37,7.79,5A21,21,0,0,0,413,74.54Zm-6.06-26.44-.05-.08a4.67,4.67,0,0,1-.55-3.68c1.14-3.34,6.1-3.43,8.3-1a6.91,6.91,0,0,1,1.43,6,2.6,2.6,0,0,1-.57,1.14c-1.43,1.34-3.82.86-5.82-.19A8.84,8.84,0,0,1,406.94,48.09Z" transform="translate(-9.12 -12.94)"/><path class="cls-1" d="M10.07,43s.88-11.24,2.1-15,3.05-7.55,9.61-8.76S36.59,16.3,40.2,21.58c2.85,4.18,3,13.93-3.41,17.71s-10,1.4-11.83,4.34,8.91,8.62,12,8.72S39.19,59.24,35,58.7c-6.45-.83-9.62-8.62-13.7-9.87-5.78-1.77-5,2.93-5.17,7.32s.22,5.35-2.65,6S9.15,62.44,9.12,54C9.09,45.83,10.07,43,10.07,43Z" transform="translate(-9.12 -12.94)"/><ellipse class="cls-2" cx="27.88" cy="30.88" rx="5.67" ry="4.11" transform="translate(-20.27 3.53) rotate(-27.65)"/><circle class="cls-1" cx="420.57" cy="13.77" r="3.35"/><path class="cls-1" d="M431.32,34.68s-2.1-.65-2.89,0c-1.08.91-.84,2.83-.68,4.49.18,1.88-.15,4.21-.43,8.17s-1.18,8.6-.83,10.07a2.19,2.19,0,0,0,3.35,1.47c1.63-.84,1.63-1.68,1.42-5.26s1.93-12.19,1.93-14.85C433.19,38,433,35.22,431.32,34.68Z" transform="translate(-9.12 -12.94)"/><circle class="cls-1" cx="85.24" cy="17.72" r="3.35"/><path class="cls-1" d="M96,37.36s-2.1-.65-2.89,0c-1.08.91-.84,2.83-.68,4.49.18,1.88-.15,4.21-.43,8.17s-1.18,8.6-.83,10.07a2.19,2.19,0,0,0,3.35,1.47c1.63-.84,1.63-1.68,1.42-5.26s1.93-12.19,1.93-14.85C97.87,40.65,97.71,37.9,96,37.36Z" transform="translate(-9.12 -12.94)"/><path class="cls-1" d="M183.5,60.9a15.87,15.87,0,0,0,4.92-1c4.14-1.56,5.11-1.89,7-3.48,3.23-2.56,4.54-8.3,1.92-13.56-3.1-6.28-10.39-7.63-15.74-10.7-1.86-1.07-3-4.39-.6-5.45,2.82-1.31,6.1-1.21,9-2,2.55-.68,4.76-3,3.59-6.09A6,6,0,0,0,189.18,15a17.22,17.22,0,0,0-5.69.09,38.3,38.3,0,0,0-7,1.63,13,13,0,0,0-1.73.77l-.48.24c-3.21,1.8-6,5.13-6,9.31,0,3.54,2.2,6.76,4.67,8.86a22,22,0,0,0,6.1,3.34,24.35,24.35,0,0,1,7.68,4.34c3.81,4.21,5.53,11.73-5.34,11.14a15.49,15.49,0,0,1-7.66-2.51c-2.6-1.71-6.68-3.76-8.8-1.56C163.48,52.25,167.37,61.56,183.5,60.9Z" transform="translate(-9.12 -12.94)"/><path class="cls-1" d="M373.42,38.33c-1.72,3.73-1.9,8.36-2.55,12.36-.35,2.74-.24,6.11,2.59,7.68,2,1.15,4.81.77,5.62-1.33a5.75,5.75,0,0,0,.07-2.78c-.21-2.18-.43-4.26-.55-6.43-.06-2-.37-4.07.39-5.9a4.43,4.43,0,0,1,3.6-2.68c3.3-.22,4.61,3.82,5.54,6.11,1.18,3.08,1.88,6.27,3.17,9.27.69,1.51,2,3.77,3.94,3.9a2.79,2.79,0,0,0,2.41-1.1,3.44,3.44,0,0,0,.58-1.86c.28-4.06-2-7.6-3.79-11.23a26.69,26.69,0,0,0-3.67-6.18c-2.94-3.73-8.63-6.61-13.41-4.11a9.52,9.52,0,0,0-4,4.3Z" transform="translate(-9.12 -12.94)"/><path class="cls-1" d="M461.48,41.21a9.52,9.52,0,0,0-3.22-4.88c-4.32-3.22-10.4-1.29-13.89,1.93a26.69,26.69,0,0,0-4.6,5.52c-2.3,3.31-5.15,6.44-5.52,10.49a3.44,3.44,0,0,0,.28,1.93,2.79,2.79,0,0,0,2.21,1.47c1.93.18,3.59-1.84,4.51-3.22,1.75-2.76,2.94-5.8,4.6-8.65,1.29-2.12,3.22-5.89,6.44-5.15a4.43,4.43,0,0,1,3.13,3.22c.46,1.93-.18,4-.55,5.89-.46,2.12-1,4.14-1.56,6.26a5.75,5.75,0,0,0-.37,2.76c.46,2.21,3.22,3,5.34,2.21,3-1.1,3.68-4.42,3.77-7.18,0-4,.55-8.65-.55-12.61Z" transform="translate(-9.12 -12.94)"/><path class="cls-1" d="M257,61.49c3.89-.82-1-13.43-2.77-17.93-.63-1.57.28-4.19,2.3-3.65,2.38.58,4.35,2.24,6.55,3.19,1.9.83,4.42.47,5.2-2a4.75,4.75,0,0,0-1-4.36A13.56,13.56,0,0,0,263.69,34,28.61,28.61,0,0,0,258,31.38c-.43-.1-.79-.15-1.22-.25a8.62,8.62,0,0,0-8.23,2.81,9.7,9.7,0,0,0-1.46,7.74c.43,1.8,1.3,3.75,1.79,6.07C249.79,50.24,251.89,62.56,257,61.49Z" transform="translate(-9.12 -12.94)"/><path class="cls-1" d="M319.47,39.58a9.52,9.52,0,0,0-4.23-4c-4.94-2.17-10.42,1.07-13.11,5A26.69,26.69,0,0,0,298.88,47c-1.5,3.74-3.58,7.43-3,11.46a3.44,3.44,0,0,0,.7,1.82,2.79,2.79,0,0,0,2.48.94c1.92-.25,3.09-2.6,3.67-4.15,1.09-3.08,1.57-6.31,2.55-9.46.78-2.35,1.82-6.46,5.13-6.46a4.43,4.43,0,0,1,3.77,2.44c.88,1.78.71,3.9.78,5.86,0,2.17-.06,4.26-.13,6.45a5.75,5.75,0,0,0,.26,2.77c.94,2,3.82,2.24,5.7,1,2.71-1.76,2.6-5.13,2.07-7.84-.91-3.95-1.4-8.55-3.36-12.16Z" transform="translate(-9.12 -12.94)"/><path class="cls-1" d="M296.34,57a2.78,2.78,0,0,1-.43-1.87A92.24,92.24,0,0,0,296,35.66c-1.14-12.05-3-21.51,0-22.52s3.87,1.84,5.42,7.77c1.69,6.48,2.11,8.33,2.5,14.74.26,4.3.45,7.19.52,8.25a2.76,2.76,0,0,1-.09.9l-3,11.4a2.78,2.78,0,0,1-5,.81Z" transform="translate(-9.12 -12.94)"/></svg>