<svg xmlns="http://www.w3.org/2000/svg" viewBox="0 0 379.34 51.63"><defs><style>.cls-1{fill:#1a1818;}.cls-2{fill:#fff;}</style></defs><title>samplelogo</title><g id="Layer_2" data-name="Layer 2"><path class="cls-1" d="M73.58,43.28c-2.23-2.66-8.28.14-11.45-1.22a4,4,0,0,1-1.58-6c1.08-1.3,2.66-1.3,4.25-1.37,1.94-.07,3.82.5,5.62-.43,2.3-1.15,3-4,.5-5.47-3-1.8-7.42-.43-10.3.86-5.9,2.52-8.06,10.44-4.1,15.33a9.63,9.63,0,0,0,2.81,2.3c3.38,1.94,8,2.59,11.59,1C73,47.46,75.38,45.44,73.58,43.28Z" transform="translate(-10.39 -10.37)"/><path class="cls-1" d="M294.81,27.91c-2.14-2.74-8.28-.13-11.4-1.6a4,4,0,0,1-1.38-6c1.12-1.26,2.71-1.21,4.29-1.23,1.95,0,3.8.63,5.63-.24,2.34-1.07,3.08-3.93.69-5.45-2.89-1.9-7.4-.68-10.32.52-6,2.32-8.41,10.16-4.61,15.19a9.63,9.63,0,0,0,2.73,2.4c3.32,2.06,7.9,2.86,11.55,1.39C294.09,32.06,296.54,30.13,294.81,27.91Z" transform="translate(-10.39 -10.37)"/><path class="cls-1" d="M294.46,42.14c-2.14-2.74-8.28-.13-11.4-1.6a4,4,0,0,1-1.38-6c1.12-1.26,2.71-1.21,4.29-1.23,1.95,0,3.8.63,5.63-.24,2.34-1.07,3.08-3.93.69-5.45-2.89-1.9-7.4-.68-10.32.52-6,2.32-8.41,10.16-4.61,15.19a9.63,9.63,0,0,0,2.73,2.4c3.32,2.06,7.9,2.86,11.55,1.39C293.74,46.3,296.18,44.36,294.46,42.14Z" transform="translate(-10.39 -10.37)"/><path class="cls-1" d="M235.14,43.28c-2.23-2.66-8.28.14-11.45-1.22a4,4,0,0,1-1.58-6c1.08-1.3,2.66-1.3,4.25-1.37,1.94-.07,3.82.5,5.62-.43,2.3-1.15,3-4,.5-5.47-3-1.8-7.42-.43-10.3.86-5.9,2.52-8.06,10.44-4.1,15.33a9.63,9.63,0,0,0,2.81,2.3c3.38,1.94,8,2.59,11.59,1C234.56,47.46,236.94,45.44,235.14,43.28Z" transform="translate(-10.39 -10.37)"/><path class="cls-1" d="M118.92,30.37a7.7,7.7,0,0,0-4.66-3.58c-2.88-.74-6,.48-8.41,2.33a12.64,12.64,0,0,0-4.23,6.3c-1.73,6.57,3.87,13.05,10.7,14.06,1.42.22,2.89-.1,3.18-1.6a2.8,2.8,0,0,0-.58-2.12,4.24,4.24,0,0,0-2.56-1.1c-2.07-.5-5.64-1.66-5.44-4.14a.42.42,0,0,1,.16-.41c.26-.27.67-.11.92,0,2.33.68,4.44,1.4,6.93.68a7.14,7.14,0,0,0,4.75-4.55,6.75,6.75,0,0,0-.13-4.42A4,4,0,0,0,118.92,30.37ZM110.16,32a5.65,5.65,0,0,1,1.92-.4,3.16,3.16,0,0,1,2.11.72c1.61,1.41.69,4.55-1.54,5a4.29,4.29,0,0,1-3.59-.85,2.49,2.49,0,0,1-.59-3A3.85,3.85,0,0,1,110.16,32Z" transform="translate(-10.39 -10.37)"/><path class="cls-1" d="M382.77,27.11a7.7,7.7,0,0,0-5.86-.42c-2.81,1-4.78,3.73-5.73,6.58a12.64,12.64,0,0,0-.05,7.58c2.18,6.43,10.43,8.75,16.68,5.82,1.3-.6,2.36-1.68,1.76-3.09a2.8,2.8,0,0,0-1.66-1.45,4.24,4.24,0,0,0-2.74.49c-2,.73-5.62,1.73-6.82-.45a.42.42,0,0,1-.09-.43c.07-.37.5-.46.77-.51,2.32-.72,4.48-1.29,6.15-3.26a7.14,7.14,0,0,0,1.45-6.41A6.75,6.75,0,0,0,384.07,28,4,4,0,0,0,382.77,27.11Zm-6.41,6.19a5.65,5.65,0,0,1,1.38-1.39,3.16,3.16,0,0,1,2.16-.57c2.13.29,3.09,3.42,1.48,5a4.29,4.29,0,0,1-3.46,1.27,2.49,2.49,0,0,1-2.17-2.21A3.85,3.85,0,0,1,376.35,33.29Z" transform="translate(-10.39 -10.37)"/><path class="cls-1" d="M180.36,29.81a7.7,7.7,0,0,0-3.77-4.51c-2.65-1.35-6-.84-8.72.45A12.64,12.64,0,0,0,162.38,31c-3.11,6,1,13.58,7.4,16,1.33.52,2.85.53,3.45-.88a2.8,2.8,0,0,0-.11-2.2,4.24,4.24,0,0,0-2.26-1.63c-1.92-.93-5.14-2.84-4.41-5.22a.42.42,0,0,1,.25-.37c.31-.21.68,0,.9.2,2.13,1.17,4,2.33,6.62,2.16a7.14,7.14,0,0,0,5.62-3.41,6.75,6.75,0,0,0,.83-4.34A4,4,0,0,0,180.36,29.81Zm-8.9-.31a5.65,5.65,0,0,1,2,0,3.16,3.16,0,0,1,1.91,1.16c1.27,1.73-.32,4.6-2.58,4.55a4.29,4.29,0,0,1-3.32-1.61,2.49,2.49,0,0,1,.09-3.1A3.85,3.85,0,0,1,171.46,29.5Z" transform="translate(-10.39 -10.37)"/><path class="cls-1" d="M179.74,45.25a7.7,7.7,0,0,0,4.66,3.58c2.88.74,6-.47,8.41-2.32A12.64,12.64,0,0,0,197,40.22c1.73-6.57-3.87-13.06-10.69-14.06-1.42-.22-2.89.1-3.18,1.6a2.8,2.8,0,0,0,.58,2.12,4.24,4.24,0,0,0,2.56,1.1c2.07.5,5.64,1.66,5.44,4.14a.42.42,0,0,1-.16.41c-.26.27-.67.11-.92,0-2.33-.68-4.44-1.4-6.93-.68A7.14,7.14,0,0,0,179,39.41a6.75,6.75,0,0,0,.13,4.42A4,4,0,0,0,179.74,45.25Zm8.76-1.62a5.65,5.65,0,0,1-1.92.4,3.16,3.16,0,0,1-2.11-.72c-1.61-1.41-.68-4.55,1.54-5a4.29,4.29,0,0,1,3.59.85,2.49,2.49,0,0,1,.58,3A3.85,3.85,0,0,1,188.5,43.64Z" transform="translate(-10.39 -10.37)"/><path class="cls-1" d="M52,29.43a7.34,7.34,0,0,0-4.72-3c-2.8-.47-5.7.95-7.8,2.9A12.05,12.05,0,0,0,36,35.63C34.9,42,40.75,47.72,47.32,48.11c1.36.1,2.74-.33,2.89-1.78a2.67,2.67,0,0,0-.73-2A4,4,0,0,0,47,43.52c-2-.3-5.49-1.11-5.51-3.49a.4.4,0,0,1,.12-.4c.23-.28.63-.16.87-.08,2.27.46,4.34,1,6.64.08a6.81,6.81,0,0,0,4.14-4.71,6.43,6.43,0,0,0-.48-4.19A3.84,3.84,0,0,0,52,29.43Zm-8.19,2.26a5.39,5.39,0,0,1,1.79-.54,3,3,0,0,1,2.06.51c1.65,1.21,1,4.27-1,4.88A4.09,4.09,0,0,1,43.17,36a2.38,2.38,0,0,1-.81-2.84A3.67,3.67,0,0,1,43.84,31.69Z" transform="translate(-10.39 -10.37)"/><path class="cls-1" d="M85.86,58.24l.29.42c1,1.31,2.62,3.53,4.65,3.32a2.33,2.33,0,0,0,1.62-1c.61-1.08,0-1.83-.8-2.48a11.15,11.15,0,0,1-2.35-2.65c-1.26-2-2.33-4.79-1.89-7.13a7.87,7.87,0,0,0,2.66.47A9.66,9.66,0,0,0,93,49a10,10,0,0,0,5.22-3.08c4.57-5,2-14-5.57-14.48C79.4,30.63,79.92,45,83.11,53.21A21.85,21.85,0,0,0,85.86,58.24Zm6.81-14.8c-1.46,1-3.28,1.67-4.54.78a2.06,2.06,0,0,1-.57-.84A5.47,5.47,0,0,1,88,38.51c1.46-2.11,5.36-2.57,6.62-.07a3.71,3.71,0,0,1,0,3A6.9,6.9,0,0,1,92.67,43.44Z" transform="translate(-10.39 -10.37)"/><path class="cls-1" d="M330.06,59.12a10,10,0,0,0,2.41-.83c2.35-1.35,2.7-2.82,3.5-4.2l.23-.45a21.85,21.85,0,0,0,2-5.36c2-8.61.6-22.88-12.38-20.31-7.4,1.51-8.76,10.8-3.55,15.1a10,10,0,0,0,5.59,2.34,9.66,9.66,0,0,0,2.94-.15,9.16,9.16,0,0,0,2.16-.62.38.38,0,0,1,.53.23,11.22,11.22,0,0,1-1,6.88,8.44,8.44,0,0,1-1.93,2.91,7.21,7.21,0,0,1-5.78.34c-3.75-1.21-4-2.67-4.29-3.42a1.25,1.25,0,0,0-2.25-.17c-.71,1.13-.24,2.93.08,3.75.46,1.17,3,3.46,6.17,4A16.61,16.61,0,0,0,330.06,59.12Zm-4.79-20.93,0-.06a3.7,3.7,0,0,1-.43-2.91c.91-2.64,4.83-2.72,6.57-.83a5.47,5.47,0,0,1,1.13,4.76,2.06,2.06,0,0,1-.45.91c-1.13,1.06-3,.68-4.61-.15A7,7,0,0,1,325.27,38.19Z" transform="translate(-10.39 -10.37)"/><path class="cls-1" d="M11.14,34.17s.69-8.89,1.66-11.88,2.42-6,7.61-6.93S32.14,13,35,17.21c2.26,3.31,2.39,11-2.7,14s-7.92,1.11-9.37,3.43,7.06,6.82,9.48,6.9,1.79,5.45-1.53,5c-5.1-.66-7.61-6.82-10.85-7.81-4.57-1.4-3.93,2.32-4.09,5.79s.17,4.23-2.1,4.79-3.42.19-3.45-6.52C10.37,36.4,11.14,34.17,11.14,34.17Z" transform="translate(-10.39 -10.37)"/><ellipse class="cls-2" cx="25.24" cy="24.57" rx="4.49" ry="3.25" transform="translate(-18.91 4.15) rotate(-27.65)"/><circle class="cls-1" cx="332.88" cy="10.9" r="2.65"/><path class="cls-1" d="M344.57,27.57s-1.67-.52-2.28,0c-.86.72-.67,2.24-.54,3.55a49.32,49.32,0,0,1-.34,6.47c-.22,3.14-.93,6.8-.66,8a1.73,1.73,0,0,0,2.65,1.17c1.29-.67,1.29-1.33,1.12-4.17s1.53-9.65,1.53-11.75C346.05,30.18,345.93,28,344.57,27.57Z" transform="translate(-10.39 -10.37)"/><circle class="cls-1" cx="67.47" cy="14.02" r="2.65"/><path class="cls-1" d="M79.16,29.7s-1.67-.52-2.28,0c-.86.72-.67,2.24-.54,3.55A49.32,49.32,0,0,1,76,39.72c-.22,3.14-.93,6.8-.66,8A1.73,1.73,0,0,0,78,48.86c1.29-.67,1.29-1.33,1.12-4.17S80.64,35,80.64,32.94C80.64,32.3,80.52,30.13,79.16,29.7Z" transform="translate(-10.39 -10.37)"/><path class="cls-1" d="M148.42,48.33a12.56,12.56,0,0,0,3.89-.82c3.28-1.23,4-1.5,5.55-2.75,2.56-2,3.6-6.57,1.52-10.74-2.46-5-8.23-6-12.46-8.47-1.48-.84-2.4-3.47-.47-4.32,2.23-1,4.83-1,7.15-1.59,2-.54,3.77-2.39,2.84-4.82a4.78,4.78,0,0,0-3.52-2.8,13.63,13.63,0,0,0-4.5.07,30.31,30.31,0,0,0-5.51,1.29,10.26,10.26,0,0,0-1.37.61l-.38.19a8.67,8.67,0,0,0-4.72,7.37,9.75,9.75,0,0,0,3.7,7A17.45,17.45,0,0,0,145,31.2,19.27,19.27,0,0,1,151,34.63c3,3.33,4.37,9.28-4.23,8.82a12.26,12.26,0,0,1-6.06-2c-2.05-1.35-5.28-3-7-1.23C132.57,41.48,135.65,48.85,148.42,48.33Z" transform="translate(-10.39 -10.37)"/><path class="cls-1" d="M298.74,30.47c-1.36,3-1.51,6.62-2,9.78-.27,2.17-.19,4.84,2,6.08,1.55.91,3.81.61,4.45-1.06a4.55,4.55,0,0,0,.06-2.2c-.17-1.72-.34-3.37-.44-5.09,0-1.56-.29-3.22.31-4.67A3.51,3.51,0,0,1,306,31.19c2.61-.17,3.65,3,4.39,4.84.94,2.44,1.49,5,2.51,7.34.55,1.19,1.59,3,3.12,3.08a2.21,2.21,0,0,0,1.91-.87,2.72,2.72,0,0,0,.46-1.48c.22-3.21-1.61-6-3-8.89a21.12,21.12,0,0,0-2.9-4.89c-2.33-3-6.83-5.23-10.61-3.26a7.53,7.53,0,0,0-3.13,3.41Z" transform="translate(-10.39 -10.37)"/><path class="cls-1" d="M368.44,32.74a7.53,7.53,0,0,0-2.55-3.86c-3.42-2.55-8.23-1-11,1.53a21.12,21.12,0,0,0-3.64,4.37c-1.82,2.62-4.08,5.1-4.37,8.3a2.72,2.72,0,0,0,.22,1.53,2.21,2.21,0,0,0,1.75,1.17c1.53.15,2.84-1.46,3.57-2.55,1.38-2.18,2.33-4.59,3.64-6.85,1-1.68,2.55-4.66,5.1-4.08a3.51,3.51,0,0,1,2.48,2.55c.36,1.53-.15,3.13-.44,4.66s-.8,3.28-1.24,5a4.55,4.55,0,0,0-.29,2.18c.36,1.75,2.55,2.4,4.22,1.75,2.4-.87,2.91-3.5,3-5.68,0-3.2.44-6.85-.44-10Z" transform="translate(-10.39 -10.37)"/><path class="cls-1" d="M206.57,48.79c3.08-.65-.78-10.63-2.19-14.19-.5-1.24.22-3.31,1.82-2.89,1.88.46,3.45,1.78,5.18,2.52,1.51.65,3.49.38,4.11-1.58a3.76,3.76,0,0,0-.79-3.45A10.73,10.73,0,0,0,211.89,27,22.64,22.64,0,0,0,207.36,25c-.34-.08-.62-.11-1-.2A6.82,6.82,0,0,0,199.88,27a7.67,7.67,0,0,0-1.16,6.13c.34,1.42,1,3,1.42,4.8C200.88,39.89,202.55,49.64,206.57,48.79Z" transform="translate(-10.39 -10.37)"/><path class="cls-1" d="M256,31.46a7.53,7.53,0,0,0-3.35-3.19c-3.91-1.72-8.25.85-10.38,3.95a21.12,21.12,0,0,0-2.57,5.07c-1.19,3-2.84,5.88-2.4,9.07a2.72,2.72,0,0,0,.55,1.44,2.21,2.21,0,0,0,2,.74c1.52-.2,2.44-2.05,2.91-3.28.86-2.44,1.25-5,2-7.49.62-1.86,1.44-5.11,4.06-5.12a3.51,3.51,0,0,1,3,1.93c.7,1.41.56,3.08.62,4.64,0,1.71,0,3.37-.1,5.1a4.55,4.55,0,0,0,.2,2.19c.75,1.62,3,1.77,4.51.76,2.15-1.39,2.06-4.06,1.64-6.2C258,38,257.59,34.31,256,31.46Z" transform="translate(-10.39 -10.37)"/><path class="cls-1" d="M237.73,45.25a2.2,2.2,0,0,1-.34-1.48,73,73,0,0,0,.09-15.41c-.91-9.54-2.37-17,0-17.82s3.06,1.46,4.29,6.15a46.54,46.54,0,0,1,2,11.67c.21,3.4.36,5.69.42,6.53a2.18,2.18,0,0,1-.07.71l-2.41,9a2.2,2.2,0,0,1-4,.64Z" transform="translate(-10.39 -10.37)"/></g></svg>